HIERARCHY
ROOT Hips
{
	OFFSET 0.000000 0.000000 0.000000
	CHANNELS 6 Xposition Yposition Zposition Zrotation Yrotation Xrotation 
	JOINT LHipJoint
	{
		OFFSET 0.000000 0.000000 0.000000
		CHANNELS 3 Zrotation Yrotation Xrotation
		JOINT LeftUpLeg
		{
			OFFSET 1.363060 -1.794630 0.839290
			CHANNELS 3 Zrotation Yrotation Xrotation
			JOINT LeftLeg
			{
				OFFSET 2.448110 -6.726130 0.000000
				CHANNELS 3 Zrotation Yrotation Xrotation
				JOINT LeftFoot
				{
					OFFSET 2.562200 -7.039590 0.000000
					CHANNELS 3 Zrotation Yrotation Xrotation
					JOINT LeftToeBase
					{
						OFFSET 0.157640 -0.433110 2.322550
						CHANNELS 3 Zrotation Yrotation Xrotation
						End Site
						{
							OFFSET 0.000000 0.000000 0.000000
						}
					}
				}
			}
		}
	}
	JOINT RHipJoint
	{
		OFFSET 0.000000 0.000000 0.000000
		CHANNELS 3 Zrotation Yrotation Xrotation
		JOINT RightUpLeg
		{
			OFFSET -1.305520 -1.794630 0.839290
			CHANNELS 3 Zrotation Yrotation Xrotation
			JOINT RightLeg
			{
				OFFSET -2.542530 -6.985550 0.000000
				CHANNELS 3 Zrotation Yrotation Xrotation
				JOINT RightFoot
				{
					OFFSET -2.568260 -7.056230 0.000000
					CHANNELS 3 Zrotation Yrotation Xrotation
					JOINT RightToeBase
					{
						OFFSET -0.164730 -0.452590 2.363150
						CHANNELS 3 Zrotation Yrotation Xrotation
						End Site
						{
							OFFSET 0.000000 0.000000 0.000000
						}
					}
				}
			}
		}
	}
	JOINT LowerBack
	{
		OFFSET 0.000000 0.000000 0.000000
		CHANNELS 3 Zrotation Yrotation Xrotation
		JOINT Spine
		{
			OFFSET 0.028270 2.035590 -0.193380
			CHANNELS 3 Zrotation Yrotation Xrotation
			JOINT Spine1
			{
				OFFSET 0.056720 2.048850 -0.042750
				CHANNELS 3 Zrotation Yrotation Xrotation
				JOINT Neck
				{
					OFFSET 0.000000 0.000000 0.000000
					CHANNELS 3 Zrotation Yrotation Xrotation
					JOINT Neck1
					{
						OFFSET -0.054170 1.746240 0.172020
						CHANNELS 3 Zrotation Yrotation Xrotation
						JOINT Head
						{
							OFFSET 0.104070 1.761360 -0.123970
							CHANNELS 3 Zrotation Yrotation Xrotation
							End Site
							{
								OFFSET 0.000000 0.000000 0.000000
							}
						}
					}
				}
				JOINT LeftShoulder
				{
					OFFSET 0.000000 0.000000 0.000000
					CHANNELS 3 Zrotation Yrotation Xrotation
					JOINT LeftArm
					{
						OFFSET 3.362410 1.200890 -0.311210
						CHANNELS 3 Zrotation Yrotation Xrotation
						JOINT LeftForeArm
						{
							OFFSET 4.983000 -0.000000 -0.000000
							CHANNELS 3 Zrotation Yrotation Xrotation
							JOINT LeftHand
							{
								OFFSET 3.483560 -0.000000 -0.000000
								CHANNELS 3 Zrotation Yrotation Xrotation
								JOINT LeftFingerBase
								{
									OFFSET 0.000000 0.000000 0.000000
									CHANNELS 3 Zrotation Yrotation Xrotation
									JOINT LeftHandIndex1
									{
										OFFSET 0.715260 -0.000000 -0.000000
										CHANNELS 3 Zrotation Yrotation Xrotation
										End Site
										{
											OFFSET 0.000000 0.000000 0.000000
										}
									}
								}
								JOINT LThumb
								{
									OFFSET 0.000000 0.000000 0.000000
									CHANNELS 3 Zrotation Yrotation Xrotation
									End Site
									{
										OFFSET 0.000000 0.000000 0.000000
									}
								}
							}
						}
					}
				}
				JOINT RightShoulder
				{
					OFFSET 0.000000 0.000000 0.000000
					CHANNELS 3 Zrotation Yrotation Xrotation
					JOINT RightArm
					{
						OFFSET -3.136600 1.374050 -0.404650
						CHANNELS 3 Zrotation Yrotation Xrotation
						JOINT RightForeArm
						{
							OFFSET -5.241900 -0.000000 -0.000000
							CHANNELS 3 Zrotation Yrotation Xrotation
							JOINT RightHand
							{
								OFFSET -3.444170 -0.000000 -0.000000
								CHANNELS 3 Zrotation Yrotation Xrotation
								JOINT RightFingerBase
								{
									OFFSET 0.000000 0.000000 0.000000
									CHANNELS 3 Zrotation Yrotation Xrotation
									JOINT RightHandIndex1
									{
										OFFSET -0.622530 -0.000000 -0.000000
										CHANNELS 3 Zrotation Yrotation Xrotation
										End Site
										{
											OFFSET 0.000000 0.000000 0.000000
										}
									}
								}
								JOINT RThumb
								{
									OFFSET 0.000000 0.000000 0.000000
									CHANNELS 3 Zrotation Yrotation Xrotation
									End Site
									{
										OFFSET 0.000000 0.000000 0.000000
									}
								}
							}
						}
					}
				}
			}
		}
	}
}
MOTION
Frames: 8
Frame Time: 0.008333
-22.005460 16.759351 -2.220450 -102.281685 88.813411 -85.615191 -12.211679 3.364632 -0.514210 -3.571689 9.730803 2.299876 -1.449669 0.051383 12.169479 0.947979 6.454056 -3.494048 0.386100 -0.000001 -68.603700 7.407104 -1.051211 4.565463 8.076844 7.821542 -41.352934 2.802150 0.030269 10.587456 -0.435595 -3.814320 8.112800 -2.081800 0.000000 -31.223700 5.762265 -3.680612 -3.611430 0.403117 -4.318662 -3.692606 -7.677841 -4.424212 0.474437 10.005642 -7.905438 -7.596186 -4.396906 -0.334850 -0.008036 0.000000 0.000000 0.000000 -8.560715 2.389489 2.104879 -65.091980 -14.454146 21.700610 -2.838223 -39.895687 -0.010381 3.330668 2.225903 0.063394 -0.102117 0.148094 0.000000 0.000000 0.000000 0.000000 0.000000 0.000000 0.000000 19.555915 -7.246597 1.677090 65.629879 -5.289649 -12.261490 4.110638 12.875808 0.009322 0.115069 4.616146 0.000546 0.108453 -0.051854 -0.000000 0.000000 0.000000 0.000000 0.000000 0.000000 0.000000 
-21.853668 16.787012 -2.192208 -98.839041 88.568082 -82.239132 -12.315766 3.384652 -0.489215 -3.050520 9.553039 1.994361 -1.275239 0.218712 13.617014 0.972483 6.821732 -2.033738 0.589500 0.000001 -71.274500 7.297273 -1.164001 4.571177 8.470707 8.190694 -40.907079 2.787649 -0.035164 11.147275 -0.490475 -4.063530 7.953408 -2.143801 -0.000000 -31.053100 6.116810 -3.645201 -3.661108 0.481963 -4.314690 -3.708346 -7.638278 -4.422259 0.461945 9.922889 -7.732832 -7.583391 -4.396216 -0.335097 -0.003648 0.000000 0.000000 0.000000 -8.618117 2.503711 2.100105 -65.387556 -14.076065 21.088719 -2.835825 -39.159906 -0.010652 3.520546 2.195336 0.065855 -0.099941 0.145525 0.000000 0.000000 0.000000 0.000000 0.000000 0.000000 0.000000 19.425740 -7.065267 1.668946 65.492468 -5.043608 -12.341987 4.131266 12.514357 0.009251 0.036701 4.570086 -0.002655 0.109578 -0.051920 -0.000000 0.000000 0.000000 0.000000 0.000000 0.000000 0.000000 
-21.701501 16.816192 -2.161863 -96.453410 88.341964 -79.933045 -12.416222 3.408410 -0.468277 -2.548805 9.430094 1.583538 -1.097864 0.392193 15.216714 0.997730 7.132968 -0.430705 0.811399 -0.000000 -73.674200 7.200306 -1.266600 4.569305 8.868531 8.493113 -40.382461 2.786708 -0.084198 11.614925 -0.533992 -4.232076 7.661747 -2.167400 0.000001 -30.860100 6.427557 -3.613186 -3.704844 0.550178 -4.310317 -3.721661 -7.599908 -4.419379 0.453299 9.851991 -7.564911 -7.567029 -4.396196 -0.335430 0.001808 0.000000 0.000000 0.000000 -8.641170 2.616342 2.093974 -65.678289 -13.674525 20.469819 -2.831789 -38.397862 -0.010933 3.720744 2.180147 0.068915 -0.097646 0.142533 0.000000 0.000000 0.000000 0.000000 0.000000 0.000000 0.000000 19.313088 -6.891664 1.656411 65.376361 -4.763730 -12.369237 4.149607 12.163094 0.009168 -0.035803 4.521626 -0.005558 0.110567 -0.051885 -0.000000 0.000000 0.000000 0.000000 0.000000 0.000000 0.000000 
-21.549596 16.846532 -2.129067 -94.891845 88.147621 -78.457783 -12.509101 3.435436 -0.447201 -2.084115 9.353483 1.053905 -0.917970 0.568056 16.968802 1.028094 7.399618 1.310025 1.047700 -0.000000 -75.608000 7.121295 -1.358043 4.560987 9.257651 8.714023 -39.790863 2.797459 -0.116881 11.982984 -0.565991 -4.322830 7.262052 -2.155601 0.000000 -30.634300 6.680818 -3.585515 -3.749395 0.605168 -4.305873 -3.733341 -7.564034 -4.415966 0.449939 9.796831 -7.408606 -7.547484 -4.397476 -0.335909 0.008328 0.000000 0.000000 0.000000 -8.626739 2.722520 2.086153 -65.956491 -13.251574 19.858444 -2.826806 -37.616645 -0.011195 3.923232 2.181033 0.072573 -0.095265 0.139116 0.000000 0.000000 0.000000 0.000000 0.000000 0.000000 0.000000 19.226568 -6.733417 1.638964 65.282426 -4.451811 -12.340056 4.165051 11.830173 0.009075 -0.102467 4.472975 -0.008159 0.111395 -0.051740 -0.000000 0.000000 0.000000 0.000000 0.000000 0.000000 0.000000 
-21.398230 16.877699 -2.094672 -94.021377 87.969012 -77.683293 -12.603076 3.458540 -0.429953 -1.627014 9.345439 0.401258 -0.734842 0.742478 18.875835 1.065583 7.611528 3.165018 1.288300 -0.000000 -76.898000 7.051548 -1.443649 4.547088 9.657696 8.864578 -39.116132 2.821748 -0.130892 12.222282 -0.589813 -4.364838 6.795835 -2.122300 0.000000 -30.358900 6.900010 -3.560034 -3.790631 0.651688 -4.300672 -3.743690 -7.530961 -4.411450 0.449158 9.749964 -7.250399 -7.520516 -4.400182 -0.336563 0.016992 0.000000 0.000000 0.000000 -8.590279 2.823701 2.079341 -66.214303 -12.821236 19.275821 -2.821834 -36.820657 -0.011429 4.119634 2.200624 0.076931 -0.092868 0.135403 0.000000 0.000000 0.000000 0.000000 0.000000 0.000000 0.000000 19.155524 -6.574948 1.617504 65.216066 -4.124687 -12.295974 4.178148 11.529313 0.008985 -0.153237 4.425050 -0.010160 0.112018 -0.051571 -0.000000 0.000000 0.000000 0.000000 0.000000 0.000000 0.000000 
-21.247566 16.909306 -2.058168 -93.689521 87.826059 -77.445602 -12.687438 3.476850 -0.408722 -1.220087 9.369027 -0.377944 -0.550994 0.909512 20.920597 1.118321 7.819057 5.095372 1.534100 0.000000 -77.355200 7.000659 -1.519967 4.528887 10.042398 8.928003 -38.393573 2.854855 -0.129209 12.350810 -0.604297 -4.351619 6.284278 -2.067800 0.000000 -30.046800 7.061112 -3.537197 -3.838247 0.685150 -4.294020 -3.752962 -7.501253 -4.405073 0.455473 9.718372 -7.118445 -7.492850 -4.404039 -0.337340 0.026089 0.000000 0.000000 0.000000 -8.522203 2.911797 2.070414 -66.449043 -12.380313 18.724306 -2.817117 -36.020241 -0.011598 4.299774 2.236289 0.081590 -0.090436 0.131363 0.000000 0.000000 0.000000 0.000000 0.000000 0.000000 0.000000 19.112168 -6.445960 1.592079 65.170760 -3.757027 -12.178323 4.187944 11.255642 0.008897 -0.201851 4.383000 -0.011959 0.112498 -0.051325 -0.000000 0.000000 0.000000 0.000000 0.000000 0.000000 0.000000 
-21.098357 16.941036 -2.020597 -93.823166 87.699758 -77.673193 -12.769584 3.481377 -0.387174 -0.838303 9.433576 -1.278380 -0.368231 1.064777 23.095185 1.188439 8.034009 7.036608 1.779700 -0.000001 -76.844200 6.958341 -1.592493 4.508469 10.430590 8.924896 -37.616888 2.897770 -0.110924 12.353149 -0.613008 -4.311783 5.764950 -2.005300 0.000000 -29.693800 7.191456 -3.513497 -3.888565 0.710874 -4.284245 -3.762553 -7.475131 -4.395399 0.462197 9.692464 -6.981330 -7.455926 -4.409653 -0.338341 0.037825 0.000000 0.000000 0.000000 -8.439056 2.987626 2.063578 -66.655091 -11.935916 18.220031 -2.813418 -35.223354 -0.011697 4.455882 2.288996 0.086648 -0.088036 0.127166 0.000000 0.000000 0.000000 0.000000 0.000000 0.000000 0.000000 19.081923 -6.310837 1.564479 65.155732 -3.386254 -12.065728 4.195225 11.029260 0.008820 -0.229705 4.345983 -0.012859 0.112737 -0.051144 -0.000000 0.000000 0.000000 0.000000 0.000000 0.000000 0.000000 
-20.950583 16.972540 -1.981880 -94.281067 87.599744 -78.218340 -12.841565 3.469481 -0.362641 -0.511842 9.510334 -2.291380 -0.191759 1.204396 25.378105 1.279522 8.308016 8.909673 2.032700 0.000000 -75.269100 6.929667 -1.659123 4.485973 10.804415 8.851381 -36.815000 2.946458 -0.079683 12.253651 -0.615299 -4.241313 5.252693 -1.935500 0.000000 -29.321500 7.279316 -3.488654 -3.943261 0.726917 -4.270309 -3.770599 -7.452020 -4.381171 0.476627 9.676802 -6.877513 -7.422426 -4.415469 -0.339343 0.048718 0.000000 0.000000 0.000000 -8.338698 3.056243 2.054888 -66.832919 -11.501909 17.769445 -2.811387 -34.434903 -0.011706 4.580305 2.353655 0.091710 -0.085720 0.122822 0.000000 0.000000 0.000000 0.000000 0.000000 0.000000 0.000000 19.071263 -6.208925 1.534948 65.159028 -2.965067 -11.864979 4.199267 10.836322 0.008757 -0.258965 4.319470 -0.013957 0.112873 -0.050958 -0.000000 0.000000 0.000000 0.000000 0.000000 0.000000 0.000000 
